<svg width="27" height="27" viewBox="0 0 27 27" fill="none" xmlns="http://www.w3.org/2000/svg">
<path d="M0 4.35484C0 1.94973 1.94973 0 4.35484 0H22.6452C25.0503 0 27 1.94973 27 4.35484V22.6452C27 25.0503 25.0503 27 22.6452 27H4.35484C1.94973 27 0 25.0503 0 22.6452V4.35484Z" fill="#FFE560"/>
<path d="M8.70972 4.35486H23.5162V6.09679H8.70972V4.35486Z" fill="#393939"/>
<path d="M8.70972 9.58069H23.5162V11.3226H8.70972V9.58069Z" fill="#393939"/>
<path d="M8.70972 14.8064H23.5162V16.5483H8.70972V14.8064Z" fill="#393939"/>
<path d="M8.70972 20.0322H23.5162V21.7742H8.70972V20.0322Z" fill="#393939"/>
<path d="M5.2257 4.79034C5.2257 5.51187 4.64078 6.09679 3.91924 6.09679C3.19771 6.09679 2.61279 5.51187 2.61279 4.79034C2.61279 4.0688 3.19771 3.48389 3.91924 3.48389C4.64078 3.48389 5.2257 4.0688 5.2257 4.79034Z" fill="#393939"/>
<path d="M5.2257 10.0162C5.2257 10.7377 4.64078 11.3226 3.91924 11.3226C3.19771 11.3226 2.61279 10.7377 2.61279 10.0162C2.61279 9.29464 3.19771 8.70972 3.91924 8.70972C4.64078 8.70972 5.2257 9.29464 5.2257 10.0162Z" fill="#393939"/>
<path d="M5.2257 15.242C5.2257 15.9635 4.64078 16.5484 3.91924 16.5484C3.19771 16.5484 2.61279 15.9635 2.61279 15.242C2.61279 14.5205 3.19771 13.9355 3.91924 13.9355C4.64078 13.9355 5.2257 14.5205 5.2257 15.242Z" fill="#393939"/>
<path d="M5.2257 20.4677C5.2257 21.1892 4.64078 21.7742 3.91924 21.7742C3.19771 21.7742 2.61279 21.1892 2.61279 20.4677C2.61279 19.7462 3.19771 19.1613 3.91924 19.1613C4.64078 19.1613 5.2257 19.7462 5.2257 20.4677Z" fill="#393939"/>
</svg>
